<mxfile host="app.diagrams.net" agent="Mozilla/5.0 (Windows NT 10.0; Win64; x64; rv:142.0) Gecko/20100101 Firefox/142.0" version="28.2.7">
  <diagram name="Сторінка-1" id="v0UHBk3bguWU-5nXkm_I">
    <mxGraphModel dx="2809" dy="751" grid="1" gridSize="10" guides="1" tooltips="1" connect="1" arrows="1" fold="1" page="1" pageScale="1" pageWidth="1169" pageHeight="827" math="0" shadow="0">
      <root>
        <mxCell id="0" />
        <mxCell id="1" parent="0" />
        <mxCell id="T213ykVr_eoomQG6XMBW-1" value="початок" style="ellipse;whiteSpace=wrap;html=1;" parent="1" vertex="1">
          <mxGeometry x="280" y="40" width="120" height="40" as="geometry" />
        </mxCell>
        <mxCell id="T213ykVr_eoomQG6XMBW-2" value="" style="endArrow=none;html=1;rounded=0;entryX=0.5;entryY=1;entryDx=0;entryDy=0;" parent="1" target="T213ykVr_eoomQG6XMBW-1" edge="1">
          <mxGeometry width="50" height="50" relative="1" as="geometry">
            <mxPoint x="340" y="100" as="sourcePoint" />
            <mxPoint x="350" y="270" as="targetPoint" />
          </mxGeometry>
        </mxCell>
        <mxCell id="T213ykVr_eoomQG6XMBW-3" value="" style="shape=parallelogram;perimeter=parallelogramPerimeter;whiteSpace=wrap;html=1;fixedSize=1;" parent="1" vertex="1">
          <mxGeometry x="280" y="100" width="120" height="40" as="geometry" />
        </mxCell>
        <mxCell id="T213ykVr_eoomQG6XMBW-4" value="" style="endArrow=none;html=1;rounded=0;entryX=0.5;entryY=1;entryDx=0;entryDy=0;" parent="1" target="T213ykVr_eoomQG6XMBW-3" edge="1">
          <mxGeometry width="50" height="50" relative="1" as="geometry">
            <mxPoint x="340" y="160" as="sourcePoint" />
            <mxPoint x="350" y="270" as="targetPoint" />
          </mxGeometry>
        </mxCell>
        <mxCell id="T213ykVr_eoomQG6XMBW-5" value="" style="rounded=0;whiteSpace=wrap;html=1;" parent="1" vertex="1">
          <mxGeometry x="280" y="160" width="120" height="40" as="geometry" />
        </mxCell>
        <mxCell id="T213ykVr_eoomQG6XMBW-6" value="" style="endArrow=none;html=1;rounded=0;entryX=0.5;entryY=1;entryDx=0;entryDy=0;" parent="1" target="T213ykVr_eoomQG6XMBW-5" edge="1">
          <mxGeometry width="50" height="50" relative="1" as="geometry">
            <mxPoint x="340" y="220" as="sourcePoint" />
            <mxPoint x="350" y="270" as="targetPoint" />
          </mxGeometry>
        </mxCell>
        <mxCell id="T213ykVr_eoomQG6XMBW-7" value="" style="rounded=0;whiteSpace=wrap;html=1;" parent="1" vertex="1">
          <mxGeometry x="280" y="220" width="120" height="40" as="geometry" />
        </mxCell>
        <mxCell id="T213ykVr_eoomQG6XMBW-8" value="" style="endArrow=none;html=1;rounded=0;entryX=0.5;entryY=1;entryDx=0;entryDy=0;" parent="1" target="T213ykVr_eoomQG6XMBW-7" edge="1">
          <mxGeometry width="50" height="50" relative="1" as="geometry">
            <mxPoint x="340" y="300" as="sourcePoint" />
            <mxPoint x="350" y="270" as="targetPoint" />
          </mxGeometry>
        </mxCell>
        <mxCell id="T213ykVr_eoomQG6XMBW-9" value="" style="rhombus;whiteSpace=wrap;html=1;" parent="1" vertex="1">
          <mxGeometry x="280" y="300" width="120" height="60" as="geometry" />
        </mxCell>
        <mxCell id="T213ykVr_eoomQG6XMBW-10" value="" style="endArrow=none;html=1;rounded=0;exitX=1;exitY=0.5;exitDx=0;exitDy=0;" parent="1" source="T213ykVr_eoomQG6XMBW-9" edge="1">
          <mxGeometry width="50" height="50" relative="1" as="geometry">
            <mxPoint x="420" y="320" as="sourcePoint" />
            <mxPoint x="480" y="330" as="targetPoint" />
          </mxGeometry>
        </mxCell>
        <mxCell id="T213ykVr_eoomQG6XMBW-11" value="" style="endArrow=none;html=1;rounded=0;" parent="1" edge="1">
          <mxGeometry width="50" height="50" relative="1" as="geometry">
            <mxPoint x="480" y="380" as="sourcePoint" />
            <mxPoint x="480" y="330" as="targetPoint" />
          </mxGeometry>
        </mxCell>
        <mxCell id="T213ykVr_eoomQG6XMBW-12" value="" style="rounded=0;whiteSpace=wrap;html=1;" parent="1" vertex="1">
          <mxGeometry x="440" y="380" width="80" height="40" as="geometry" />
        </mxCell>
        <mxCell id="T213ykVr_eoomQG6XMBW-13" value="" style="endArrow=none;html=1;rounded=0;entryX=0.5;entryY=1;entryDx=0;entryDy=0;" parent="1" target="T213ykVr_eoomQG6XMBW-12" edge="1">
          <mxGeometry width="50" height="50" relative="1" as="geometry">
            <mxPoint x="480" y="460" as="sourcePoint" />
            <mxPoint x="470" y="300" as="targetPoint" />
          </mxGeometry>
        </mxCell>
        <mxCell id="T213ykVr_eoomQG6XMBW-14" value="" style="rounded=0;whiteSpace=wrap;html=1;" parent="1" vertex="1">
          <mxGeometry x="440" y="460" width="80" height="40" as="geometry" />
        </mxCell>
        <mxCell id="T213ykVr_eoomQG6XMBW-15" value="" style="endArrow=none;html=1;rounded=0;entryX=0.5;entryY=1;entryDx=0;entryDy=0;" parent="1" target="T213ykVr_eoomQG6XMBW-14" edge="1">
          <mxGeometry width="50" height="50" relative="1" as="geometry">
            <mxPoint x="480" y="520" as="sourcePoint" />
            <mxPoint x="470" y="350" as="targetPoint" />
          </mxGeometry>
        </mxCell>
        <mxCell id="T213ykVr_eoomQG6XMBW-16" value="" style="rhombus;whiteSpace=wrap;html=1;" parent="1" vertex="1">
          <mxGeometry x="417.5" y="520" width="125" height="40" as="geometry" />
        </mxCell>
        <mxCell id="T213ykVr_eoomQG6XMBW-17" value="" style="endArrow=none;html=1;rounded=0;exitX=1;exitY=0.5;exitDx=0;exitDy=0;" parent="1" source="T213ykVr_eoomQG6XMBW-16" edge="1">
          <mxGeometry width="50" height="50" relative="1" as="geometry">
            <mxPoint x="420" y="400" as="sourcePoint" />
            <mxPoint x="600" y="540" as="targetPoint" />
          </mxGeometry>
        </mxCell>
        <mxCell id="T213ykVr_eoomQG6XMBW-18" value="" style="endArrow=none;html=1;rounded=0;" parent="1" edge="1">
          <mxGeometry width="50" height="50" relative="1" as="geometry">
            <mxPoint x="600" y="580" as="sourcePoint" />
            <mxPoint x="600" y="540" as="targetPoint" />
          </mxGeometry>
        </mxCell>
        <mxCell id="T213ykVr_eoomQG6XMBW-19" value="" style="rounded=0;whiteSpace=wrap;html=1;" parent="1" vertex="1">
          <mxGeometry x="560" y="580" width="80" height="40" as="geometry" />
        </mxCell>
        <mxCell id="T213ykVr_eoomQG6XMBW-20" value="" style="endArrow=none;html=1;rounded=0;exitX=0.5;exitY=1;exitDx=0;exitDy=0;" parent="1" source="T213ykVr_eoomQG6XMBW-19" edge="1">
          <mxGeometry width="50" height="50" relative="1" as="geometry">
            <mxPoint x="420" y="420" as="sourcePoint" />
            <mxPoint x="600" y="641.5999755859375" as="targetPoint" />
          </mxGeometry>
        </mxCell>
        <mxCell id="T213ykVr_eoomQG6XMBW-21" value="" style="rounded=0;whiteSpace=wrap;html=1;" parent="1" vertex="1">
          <mxGeometry x="560" y="640" width="80" height="40" as="geometry" />
        </mxCell>
        <mxCell id="T213ykVr_eoomQG6XMBW-22" value="" style="endArrow=none;html=1;rounded=0;exitX=0.5;exitY=1;exitDx=0;exitDy=0;" parent="1" source="T213ykVr_eoomQG6XMBW-21" edge="1">
          <mxGeometry width="50" height="50" relative="1" as="geometry">
            <mxPoint x="420" y="520" as="sourcePoint" />
            <mxPoint x="600" y="700" as="targetPoint" />
          </mxGeometry>
        </mxCell>
        <mxCell id="T213ykVr_eoomQG6XMBW-23" value="" style="endArrow=none;html=1;rounded=0;" parent="1" edge="1">
          <mxGeometry width="50" height="50" relative="1" as="geometry">
            <mxPoint x="600" y="700" as="sourcePoint" />
            <mxPoint x="680" y="700" as="targetPoint" />
          </mxGeometry>
        </mxCell>
        <mxCell id="T213ykVr_eoomQG6XMBW-24" value="" style="endArrow=classic;html=1;rounded=0;" parent="1" edge="1">
          <mxGeometry width="50" height="50" relative="1" as="geometry">
            <mxPoint x="680" y="700" as="sourcePoint" />
            <mxPoint x="480" y="510" as="targetPoint" />
            <Array as="points">
              <mxPoint x="680" y="510" />
            </Array>
          </mxGeometry>
        </mxCell>
        <mxCell id="T213ykVr_eoomQG6XMBW-25" value="" style="endArrow=none;html=1;rounded=0;entryX=0;entryY=0.5;entryDx=0;entryDy=0;" parent="1" target="T213ykVr_eoomQG6XMBW-16" edge="1">
          <mxGeometry width="50" height="50" relative="1" as="geometry">
            <mxPoint x="360" y="540" as="sourcePoint" />
            <mxPoint x="400" y="500" as="targetPoint" />
          </mxGeometry>
        </mxCell>
        <mxCell id="T213ykVr_eoomQG6XMBW-26" value="" style="endArrow=none;html=1;rounded=0;" parent="1" edge="1">
          <mxGeometry width="50" height="50" relative="1" as="geometry">
            <mxPoint x="360" y="540" as="sourcePoint" />
            <mxPoint x="360" y="580" as="targetPoint" />
          </mxGeometry>
        </mxCell>
        <mxCell id="T213ykVr_eoomQG6XMBW-27" value="" style="rounded=0;whiteSpace=wrap;html=1;" parent="1" vertex="1">
          <mxGeometry x="320" y="580" width="80" height="40" as="geometry" />
        </mxCell>
        <mxCell id="T213ykVr_eoomQG6XMBW-28" value="" style="endArrow=none;html=1;rounded=0;exitX=0.5;exitY=1;exitDx=0;exitDy=0;" parent="1" source="T213ykVr_eoomQG6XMBW-27" edge="1">
          <mxGeometry width="50" height="50" relative="1" as="geometry">
            <mxPoint x="380" y="550" as="sourcePoint" />
            <mxPoint x="360" y="640" as="targetPoint" />
          </mxGeometry>
        </mxCell>
        <mxCell id="T213ykVr_eoomQG6XMBW-29" value="" style="rounded=0;whiteSpace=wrap;html=1;" parent="1" vertex="1">
          <mxGeometry x="320" y="640" width="80" height="40" as="geometry" />
        </mxCell>
        <mxCell id="T213ykVr_eoomQG6XMBW-30" value="" style="endArrow=none;html=1;rounded=0;exitX=0.5;exitY=1;exitDx=0;exitDy=0;" parent="1" source="T213ykVr_eoomQG6XMBW-29" edge="1">
          <mxGeometry width="50" height="50" relative="1" as="geometry">
            <mxPoint x="380" y="590" as="sourcePoint" />
            <mxPoint x="360" y="760" as="targetPoint" />
          </mxGeometry>
        </mxCell>
        <mxCell id="T213ykVr_eoomQG6XMBW-31" value="" style="endArrow=classic;html=1;rounded=0;" parent="1" edge="1">
          <mxGeometry width="50" height="50" relative="1" as="geometry">
            <mxPoint x="360" y="760" as="sourcePoint" />
            <mxPoint x="340" y="280" as="targetPoint" />
            <Array as="points">
              <mxPoint x="720" y="760" />
              <mxPoint x="720" y="280" />
            </Array>
          </mxGeometry>
        </mxCell>
        <mxCell id="T213ykVr_eoomQG6XMBW-32" value="" style="endArrow=none;html=1;rounded=0;exitX=1;exitY=0.5;exitDx=0;exitDy=0;" parent="1" edge="1">
          <mxGeometry width="50" height="50" relative="1" as="geometry">
            <mxPoint x="200" y="329.5" as="sourcePoint" />
            <mxPoint x="280" y="329.5" as="targetPoint" />
          </mxGeometry>
        </mxCell>
        <mxCell id="T213ykVr_eoomQG6XMBW-33" value="" style="endArrow=none;html=1;rounded=0;" parent="1" edge="1">
          <mxGeometry width="50" height="50" relative="1" as="geometry">
            <mxPoint x="200" y="520" as="sourcePoint" />
            <mxPoint x="200" y="330" as="targetPoint" />
          </mxGeometry>
        </mxCell>
        <mxCell id="T213ykVr_eoomQG6XMBW-34" value="" style="shape=document;whiteSpace=wrap;html=1;boundedLbl=1;" parent="1" vertex="1">
          <mxGeometry x="160" y="520" width="80" height="40" as="geometry" />
        </mxCell>
        <mxCell id="T213ykVr_eoomQG6XMBW-35" value="" style="endArrow=none;html=1;rounded=0;entryX=0.505;entryY=0.848;entryDx=0;entryDy=0;entryPerimeter=0;" parent="1" target="T213ykVr_eoomQG6XMBW-34" edge="1">
          <mxGeometry width="50" height="50" relative="1" as="geometry">
            <mxPoint x="200" y="600" as="sourcePoint" />
            <mxPoint x="320" y="540" as="targetPoint" />
          </mxGeometry>
        </mxCell>
        <mxCell id="T213ykVr_eoomQG6XMBW-36" value="" style="rounded=0;whiteSpace=wrap;html=1;" parent="1" vertex="1">
          <mxGeometry x="160" y="600" width="80" height="40" as="geometry" />
        </mxCell>
        <mxCell id="T213ykVr_eoomQG6XMBW-37" value="" style="endArrow=none;html=1;rounded=0;exitX=0.5;exitY=1;exitDx=0;exitDy=0;" parent="1" source="T213ykVr_eoomQG6XMBW-36" edge="1">
          <mxGeometry width="50" height="50" relative="1" as="geometry">
            <mxPoint x="240" y="590" as="sourcePoint" />
            <mxPoint x="200" y="660" as="targetPoint" />
          </mxGeometry>
        </mxCell>
        <mxCell id="T213ykVr_eoomQG6XMBW-38" value="" style="rounded=0;whiteSpace=wrap;html=1;" parent="1" vertex="1">
          <mxGeometry x="160" y="660" width="80" height="40" as="geometry" />
        </mxCell>
        <mxCell id="T213ykVr_eoomQG6XMBW-39" value="" style="endArrow=none;html=1;rounded=0;exitX=0.5;exitY=1;exitDx=0;exitDy=0;" parent="1" source="T213ykVr_eoomQG6XMBW-38" edge="1">
          <mxGeometry width="50" height="50" relative="1" as="geometry">
            <mxPoint x="240" y="590" as="sourcePoint" />
            <mxPoint x="200" y="720" as="targetPoint" />
          </mxGeometry>
        </mxCell>
        <mxCell id="T213ykVr_eoomQG6XMBW-40" value="" style="rounded=0;whiteSpace=wrap;html=1;" parent="1" vertex="1">
          <mxGeometry x="160" y="720" width="80" height="40" as="geometry" />
        </mxCell>
        <mxCell id="T213ykVr_eoomQG6XMBW-41" value="" style="endArrow=none;html=1;rounded=0;exitX=0.5;exitY=1;exitDx=0;exitDy=0;" parent="1" source="T213ykVr_eoomQG6XMBW-40" edge="1">
          <mxGeometry width="50" height="50" relative="1" as="geometry">
            <mxPoint x="240" y="620" as="sourcePoint" />
            <mxPoint x="200" y="780" as="targetPoint" />
          </mxGeometry>
        </mxCell>
        <mxCell id="T213ykVr_eoomQG6XMBW-42" value="" style="rounded=0;whiteSpace=wrap;html=1;" parent="1" vertex="1">
          <mxGeometry x="160" y="780" width="80" height="40" as="geometry" />
        </mxCell>
        <mxCell id="T213ykVr_eoomQG6XMBW-43" value="" style="endArrow=none;html=1;rounded=0;exitX=0.5;exitY=1;exitDx=0;exitDy=0;" parent="1" source="T213ykVr_eoomQG6XMBW-42" edge="1">
          <mxGeometry width="50" height="50" relative="1" as="geometry">
            <mxPoint x="240" y="740" as="sourcePoint" />
            <mxPoint x="200" y="860" as="targetPoint" />
          </mxGeometry>
        </mxCell>
        <mxCell id="T213ykVr_eoomQG6XMBW-44" value="" style="rounded=0;whiteSpace=wrap;html=1;" parent="1" vertex="1">
          <mxGeometry x="160" y="860" width="80" height="40" as="geometry" />
        </mxCell>
        <mxCell id="T213ykVr_eoomQG6XMBW-45" value="" style="endArrow=none;html=1;rounded=0;exitX=0.5;exitY=1;exitDx=0;exitDy=0;" parent="1" source="T213ykVr_eoomQG6XMBW-44" edge="1">
          <mxGeometry width="50" height="50" relative="1" as="geometry">
            <mxPoint x="240" y="810" as="sourcePoint" />
            <mxPoint x="200" y="920" as="targetPoint" />
          </mxGeometry>
        </mxCell>
        <mxCell id="T213ykVr_eoomQG6XMBW-46" value="" style="rounded=0;whiteSpace=wrap;html=1;" parent="1" vertex="1">
          <mxGeometry x="160" y="920" width="80" height="40" as="geometry" />
        </mxCell>
        <mxCell id="T213ykVr_eoomQG6XMBW-47" value="" style="rhombus;whiteSpace=wrap;html=1;" parent="1" vertex="1">
          <mxGeometry x="140" y="980" width="120" height="60" as="geometry" />
        </mxCell>
        <mxCell id="T213ykVr_eoomQG6XMBW-48" value="" style="endArrow=none;html=1;rounded=0;exitX=0.5;exitY=1;exitDx=0;exitDy=0;entryX=0.5;entryY=0;entryDx=0;entryDy=0;" parent="1" source="T213ykVr_eoomQG6XMBW-46" target="T213ykVr_eoomQG6XMBW-47" edge="1">
          <mxGeometry width="50" height="50" relative="1" as="geometry">
            <mxPoint x="240" y="880" as="sourcePoint" />
            <mxPoint x="290" y="830" as="targetPoint" />
          </mxGeometry>
        </mxCell>
        <mxCell id="T213ykVr_eoomQG6XMBW-49" value="" style="endArrow=classic;html=1;rounded=0;exitX=1;exitY=0.5;exitDx=0;exitDy=0;" parent="1" source="T213ykVr_eoomQG6XMBW-47" edge="1">
          <mxGeometry width="50" height="50" relative="1" as="geometry">
            <mxPoint x="240" y="880" as="sourcePoint" />
            <mxPoint x="200" y="840" as="targetPoint" />
            <Array as="points">
              <mxPoint x="320" y="1010" />
              <mxPoint x="320" y="840" />
            </Array>
          </mxGeometry>
        </mxCell>
        <mxCell id="T213ykVr_eoomQG6XMBW-50" value="" style="endArrow=none;html=1;rounded=0;exitX=0;exitY=0.5;exitDx=0;exitDy=0;" parent="1" source="T213ykVr_eoomQG6XMBW-47" edge="1">
          <mxGeometry width="50" height="50" relative="1" as="geometry">
            <mxPoint x="240" y="880" as="sourcePoint" />
            <mxPoint x="80" y="1010" as="targetPoint" />
          </mxGeometry>
        </mxCell>
        <mxCell id="T213ykVr_eoomQG6XMBW-51" value="" style="endArrow=none;html=1;rounded=0;" parent="1" edge="1">
          <mxGeometry width="50" height="50" relative="1" as="geometry">
            <mxPoint x="80" y="1010" as="sourcePoint" />
            <mxPoint x="80" y="1080" as="targetPoint" />
          </mxGeometry>
        </mxCell>
        <mxCell id="T213ykVr_eoomQG6XMBW-52" value="" style="rounded=0;whiteSpace=wrap;html=1;" parent="1" vertex="1">
          <mxGeometry x="20" y="1080" width="120" height="40" as="geometry" />
        </mxCell>
        <mxCell id="T213ykVr_eoomQG6XMBW-53" value="" style="endArrow=none;html=1;rounded=0;exitX=0.5;exitY=1;exitDx=0;exitDy=0;" parent="1" source="T213ykVr_eoomQG6XMBW-52" edge="1">
          <mxGeometry width="50" height="50" relative="1" as="geometry">
            <mxPoint x="160" y="1100" as="sourcePoint" />
            <mxPoint x="80" y="1140" as="targetPoint" />
          </mxGeometry>
        </mxCell>
        <mxCell id="T213ykVr_eoomQG6XMBW-54" value="" style="rounded=0;whiteSpace=wrap;html=1;" parent="1" vertex="1">
          <mxGeometry x="20" y="1140" width="120" height="40" as="geometry" />
        </mxCell>
        <mxCell id="T213ykVr_eoomQG6XMBW-55" value="" style="endArrow=none;html=1;rounded=0;exitX=0.5;exitY=1;exitDx=0;exitDy=0;" parent="1" source="T213ykVr_eoomQG6XMBW-54" edge="1">
          <mxGeometry width="50" height="50" relative="1" as="geometry">
            <mxPoint x="160" y="1100" as="sourcePoint" />
            <mxPoint x="80" y="1200" as="targetPoint" />
          </mxGeometry>
        </mxCell>
        <mxCell id="T213ykVr_eoomQG6XMBW-56" value="" style="rhombus;whiteSpace=wrap;html=1;" parent="1" vertex="1">
          <mxGeometry x="20" y="1200.5" width="120" height="59.5" as="geometry" />
        </mxCell>
        <mxCell id="T213ykVr_eoomQG6XMBW-57" value="" style="endArrow=classic;html=1;rounded=0;exitX=1;exitY=0.5;exitDx=0;exitDy=0;" parent="1" source="T213ykVr_eoomQG6XMBW-56" edge="1">
          <mxGeometry width="50" height="50" relative="1" as="geometry">
            <mxPoint x="160" y="1170" as="sourcePoint" />
            <mxPoint x="80" y="1060" as="targetPoint" />
            <Array as="points">
              <mxPoint x="200" y="1230" />
              <mxPoint x="200" y="1060" />
            </Array>
          </mxGeometry>
        </mxCell>
        <mxCell id="T213ykVr_eoomQG6XMBW-60" value="" style="endArrow=none;html=1;rounded=0;exitX=0;exitY=0.5;exitDx=0;exitDy=0;" parent="1" source="T213ykVr_eoomQG6XMBW-56" edge="1">
          <mxGeometry width="50" height="50" relative="1" as="geometry">
            <mxPoint x="40" y="1240" as="sourcePoint" />
            <mxPoint x="-40" y="1230" as="targetPoint" />
          </mxGeometry>
        </mxCell>
        <mxCell id="T213ykVr_eoomQG6XMBW-61" value="" style="endArrow=none;html=1;rounded=0;" parent="1" edge="1">
          <mxGeometry width="50" height="50" relative="1" as="geometry">
            <mxPoint x="-40" y="1280" as="sourcePoint" />
            <mxPoint x="-40" y="1230" as="targetPoint" />
          </mxGeometry>
        </mxCell>
        <mxCell id="T213ykVr_eoomQG6XMBW-62" value="" style="shape=document;whiteSpace=wrap;html=1;boundedLbl=1;" parent="1" vertex="1">
          <mxGeometry x="-80" y="1280" width="80" height="40" as="geometry" />
        </mxCell>
        <mxCell id="T213ykVr_eoomQG6XMBW-63" value="" style="endArrow=none;html=1;rounded=0;entryX=0.502;entryY=0.875;entryDx=0;entryDy=0;entryPerimeter=0;" parent="1" target="T213ykVr_eoomQG6XMBW-62" edge="1">
          <mxGeometry width="50" height="50" relative="1" as="geometry">
            <mxPoint x="-40" y="1340" as="sourcePoint" />
            <mxPoint x="-40.17" y="1320" as="targetPoint" />
            <Array as="points">
              <mxPoint x="-40" y="1340" />
            </Array>
          </mxGeometry>
        </mxCell>
        <mxCell id="T213ykVr_eoomQG6XMBW-64" value="" style="rounded=0;whiteSpace=wrap;html=1;" parent="1" vertex="1">
          <mxGeometry x="-100" y="1340" width="120" height="40" as="geometry" />
        </mxCell>
        <mxCell id="T213ykVr_eoomQG6XMBW-65" value="" style="endArrow=none;html=1;rounded=0;exitX=0.5;exitY=1;exitDx=0;exitDy=0;" parent="1" source="T213ykVr_eoomQG6XMBW-64" edge="1">
          <mxGeometry width="50" height="50" relative="1" as="geometry">
            <mxPoint x="10" y="1290" as="sourcePoint" />
            <mxPoint x="-40" y="1400" as="targetPoint" />
          </mxGeometry>
        </mxCell>
        <mxCell id="T213ykVr_eoomQG6XMBW-66" value="" style="rounded=0;whiteSpace=wrap;html=1;" parent="1" vertex="1">
          <mxGeometry x="-100" y="1400" width="120" height="40" as="geometry" />
        </mxCell>
        <mxCell id="T213ykVr_eoomQG6XMBW-67" value="" style="endArrow=none;html=1;rounded=0;exitX=0.5;exitY=1;exitDx=0;exitDy=0;" parent="1" source="T213ykVr_eoomQG6XMBW-66" edge="1">
          <mxGeometry width="50" height="50" relative="1" as="geometry">
            <mxPoint x="10" y="1310" as="sourcePoint" />
            <mxPoint x="-40" y="1480" as="targetPoint" />
          </mxGeometry>
        </mxCell>
        <mxCell id="T213ykVr_eoomQG6XMBW-68" value="" style="rhombus;whiteSpace=wrap;html=1;" parent="1" vertex="1">
          <mxGeometry x="-100" y="1480" width="120" height="59.5" as="geometry" />
        </mxCell>
        <mxCell id="T213ykVr_eoomQG6XMBW-69" value="" style="endArrow=none;html=1;rounded=0;exitX=1;exitY=0.5;exitDx=0;exitDy=0;" parent="1" source="T213ykVr_eoomQG6XMBW-68" edge="1">
          <mxGeometry width="50" height="50" relative="1" as="geometry">
            <mxPoint x="10" y="1440" as="sourcePoint" />
            <mxPoint x="80" y="1510" as="targetPoint" />
          </mxGeometry>
        </mxCell>
        <mxCell id="T213ykVr_eoomQG6XMBW-70" value="" style="endArrow=none;html=1;rounded=0;" parent="1" edge="1">
          <mxGeometry width="50" height="50" relative="1" as="geometry">
            <mxPoint x="80" y="1510" as="sourcePoint" />
            <mxPoint x="80" y="1540" as="targetPoint" />
          </mxGeometry>
        </mxCell>
        <mxCell id="T213ykVr_eoomQG6XMBW-72" value="" style="rounded=0;whiteSpace=wrap;html=1;" parent="1" vertex="1">
          <mxGeometry x="20" y="1539.5" width="120" height="40" as="geometry" />
        </mxCell>
        <mxCell id="T213ykVr_eoomQG6XMBW-73" value="" style="endArrow=none;html=1;rounded=0;exitX=0.5;exitY=1;exitDx=0;exitDy=0;" parent="1" source="T213ykVr_eoomQG6XMBW-72" edge="1">
          <mxGeometry width="50" height="50" relative="1" as="geometry">
            <mxPoint x="10" y="1480" as="sourcePoint" />
            <mxPoint x="80" y="1600" as="targetPoint" />
          </mxGeometry>
        </mxCell>
        <mxCell id="T213ykVr_eoomQG6XMBW-74" value="" style="rounded=0;whiteSpace=wrap;html=1;" parent="1" vertex="1">
          <mxGeometry x="20" y="1600" width="120" height="40" as="geometry" />
        </mxCell>
        <mxCell id="T213ykVr_eoomQG6XMBW-75" value="" style="endArrow=none;html=1;rounded=0;exitX=0.5;exitY=1;exitDx=0;exitDy=0;" parent="1" source="T213ykVr_eoomQG6XMBW-74" edge="1">
          <mxGeometry width="50" height="50" relative="1" as="geometry">
            <mxPoint x="10" y="1580" as="sourcePoint" />
            <mxPoint x="80" y="1660" as="targetPoint" />
          </mxGeometry>
        </mxCell>
        <mxCell id="T213ykVr_eoomQG6XMBW-78" value="" style="endArrow=none;html=1;rounded=0;entryX=0;entryY=0.5;entryDx=0;entryDy=0;" parent="1" target="T213ykVr_eoomQG6XMBW-68" edge="1">
          <mxGeometry width="50" height="50" relative="1" as="geometry">
            <mxPoint x="-680" y="1510" as="sourcePoint" />
            <mxPoint x="-80" y="1490" as="targetPoint" />
          </mxGeometry>
        </mxCell>
        <mxCell id="T213ykVr_eoomQG6XMBW-85" value="" style="rhombus;whiteSpace=wrap;html=1;" parent="1" vertex="1">
          <mxGeometry x="20" y="1660" width="120" height="59.5" as="geometry" />
        </mxCell>
        <mxCell id="T213ykVr_eoomQG6XMBW-86" value="" style="endArrow=none;html=1;rounded=0;" parent="1" edge="1">
          <mxGeometry width="50" height="50" relative="1" as="geometry">
            <mxPoint x="140" y="1690" as="sourcePoint" />
            <mxPoint x="200" y="1690" as="targetPoint" />
          </mxGeometry>
        </mxCell>
        <mxCell id="T213ykVr_eoomQG6XMBW-87" value="" style="endArrow=none;html=1;rounded=0;" parent="1" edge="1">
          <mxGeometry width="50" height="50" relative="1" as="geometry">
            <mxPoint x="200" y="1740" as="sourcePoint" />
            <mxPoint x="200" y="1690" as="targetPoint" />
          </mxGeometry>
        </mxCell>
        <mxCell id="T213ykVr_eoomQG6XMBW-88" value="" style="rounded=0;whiteSpace=wrap;html=1;" parent="1" vertex="1">
          <mxGeometry x="140" y="1740" width="120" height="40" as="geometry" />
        </mxCell>
        <mxCell id="T213ykVr_eoomQG6XMBW-89" value="" style="endArrow=none;html=1;rounded=0;" parent="1" edge="1">
          <mxGeometry width="50" height="50" relative="1" as="geometry">
            <mxPoint x="200" y="1800" as="sourcePoint" />
            <mxPoint x="200" y="1780" as="targetPoint" />
          </mxGeometry>
        </mxCell>
        <mxCell id="T213ykVr_eoomQG6XMBW-90" value="" style="rounded=0;whiteSpace=wrap;html=1;" parent="1" vertex="1">
          <mxGeometry x="140" y="1800" width="120" height="40" as="geometry" />
        </mxCell>
        <mxCell id="T213ykVr_eoomQG6XMBW-91" value="" style="endArrow=classic;html=1;rounded=0;exitX=0.5;exitY=1;exitDx=0;exitDy=0;" parent="1" source="T213ykVr_eoomQG6XMBW-90" edge="1">
          <mxGeometry width="50" height="50" relative="1" as="geometry">
            <mxPoint x="90" y="1820" as="sourcePoint" />
            <mxPoint x="80" y="1650" as="targetPoint" />
            <Array as="points">
              <mxPoint x="200" y="1880" />
              <mxPoint x="300" y="1880" />
              <mxPoint x="300" y="1650" />
            </Array>
          </mxGeometry>
        </mxCell>
        <mxCell id="T213ykVr_eoomQG6XMBW-92" value="" style="endArrow=none;html=1;rounded=0;" parent="1" edge="1">
          <mxGeometry width="50" height="50" relative="1" as="geometry">
            <mxPoint x="-40" y="1689.22" as="sourcePoint" />
            <mxPoint x="20" y="1689.22" as="targetPoint" />
          </mxGeometry>
        </mxCell>
        <mxCell id="T213ykVr_eoomQG6XMBW-93" value="" style="endArrow=none;html=1;rounded=0;" parent="1" edge="1">
          <mxGeometry width="50" height="50" relative="1" as="geometry">
            <mxPoint x="-40.53" y="1740" as="sourcePoint" />
            <mxPoint x="-40.53" y="1690" as="targetPoint" />
          </mxGeometry>
        </mxCell>
        <mxCell id="T213ykVr_eoomQG6XMBW-94" value="" style="rounded=0;whiteSpace=wrap;html=1;" parent="1" vertex="1">
          <mxGeometry x="-100" y="1740" width="120" height="40" as="geometry" />
        </mxCell>
        <mxCell id="T213ykVr_eoomQG6XMBW-95" value="" style="endArrow=none;html=1;rounded=0;exitX=0.5;exitY=1;exitDx=0;exitDy=0;" parent="1" source="T213ykVr_eoomQG6XMBW-94" edge="1">
          <mxGeometry width="50" height="50" relative="1" as="geometry">
            <mxPoint x="60" y="1820" as="sourcePoint" />
            <mxPoint x="-40" y="1800" as="targetPoint" />
          </mxGeometry>
        </mxCell>
        <mxCell id="T213ykVr_eoomQG6XMBW-96" value="" style="rounded=0;whiteSpace=wrap;html=1;" parent="1" vertex="1">
          <mxGeometry x="-100" y="1800" width="120" height="40" as="geometry" />
        </mxCell>
        <mxCell id="T213ykVr_eoomQG6XMBW-97" value="" style="endArrow=classic;html=1;rounded=0;exitX=0.5;exitY=1;exitDx=0;exitDy=0;" parent="1" source="T213ykVr_eoomQG6XMBW-96" edge="1">
          <mxGeometry width="50" height="50" relative="1" as="geometry">
            <mxPoint x="60" y="1870" as="sourcePoint" />
            <mxPoint x="-40" y="1460" as="targetPoint" />
            <Array as="points">
              <mxPoint x="-40" y="1920" />
              <mxPoint x="360" y="1920" />
              <mxPoint x="360" y="1460" />
            </Array>
          </mxGeometry>
        </mxCell>
        <mxCell id="-tWR_6xvnYIw_k4LsGsC-1" value="" style="endArrow=none;html=1;rounded=0;" edge="1" parent="1">
          <mxGeometry width="50" height="50" relative="1" as="geometry">
            <mxPoint x="-680" y="1540" as="sourcePoint" />
            <mxPoint x="-680" y="1510" as="targetPoint" />
          </mxGeometry>
        </mxCell>
        <mxCell id="-tWR_6xvnYIw_k4LsGsC-2" value="" style="shape=document;whiteSpace=wrap;html=1;boundedLbl=1;" vertex="1" parent="1">
          <mxGeometry x="-720" y="1539.5" width="80" height="40.5" as="geometry" />
        </mxCell>
        <mxCell id="-tWR_6xvnYIw_k4LsGsC-3" value="" style="endArrow=none;html=1;rounded=0;entryX=0.496;entryY=0.864;entryDx=0;entryDy=0;entryPerimeter=0;" edge="1" parent="1" target="-tWR_6xvnYIw_k4LsGsC-2">
          <mxGeometry width="50" height="50" relative="1" as="geometry">
            <mxPoint x="-680" y="1600" as="sourcePoint" />
            <mxPoint x="-550" y="1650" as="targetPoint" />
            <Array as="points">
              <mxPoint x="-680" y="1590" />
            </Array>
          </mxGeometry>
        </mxCell>
        <mxCell id="-tWR_6xvnYIw_k4LsGsC-4" value="" style="rounded=0;whiteSpace=wrap;html=1;" vertex="1" parent="1">
          <mxGeometry x="-730" y="1600" width="100" height="40" as="geometry" />
        </mxCell>
        <mxCell id="-tWR_6xvnYIw_k4LsGsC-5" value="" style="endArrow=none;html=1;rounded=0;exitX=0.5;exitY=1;exitDx=0;exitDy=0;" edge="1" parent="1" source="-tWR_6xvnYIw_k4LsGsC-4">
          <mxGeometry width="50" height="50" relative="1" as="geometry">
            <mxPoint x="-640" y="1590" as="sourcePoint" />
            <mxPoint x="-680" y="1660" as="targetPoint" />
          </mxGeometry>
        </mxCell>
        <mxCell id="-tWR_6xvnYIw_k4LsGsC-6" value="" style="rounded=0;whiteSpace=wrap;html=1;" vertex="1" parent="1">
          <mxGeometry x="-730" y="1660" width="100" height="40" as="geometry" />
        </mxCell>
        <mxCell id="-tWR_6xvnYIw_k4LsGsC-7" value="" style="endArrow=none;html=1;rounded=0;exitX=0.5;exitY=1;exitDx=0;exitDy=0;" edge="1" parent="1" source="-tWR_6xvnYIw_k4LsGsC-6">
          <mxGeometry width="50" height="50" relative="1" as="geometry">
            <mxPoint x="-640" y="1630" as="sourcePoint" />
            <mxPoint x="-680" y="1720" as="targetPoint" />
          </mxGeometry>
        </mxCell>
        <mxCell id="-tWR_6xvnYIw_k4LsGsC-8" value="" style="rhombus;whiteSpace=wrap;html=1;" vertex="1" parent="1">
          <mxGeometry x="-740" y="1719.5" width="120" height="59.5" as="geometry" />
        </mxCell>
        <mxCell id="-tWR_6xvnYIw_k4LsGsC-9" value="" style="endArrow=none;html=1;rounded=0;exitX=1;exitY=0.5;exitDx=0;exitDy=0;" edge="1" parent="1" source="-tWR_6xvnYIw_k4LsGsC-8">
          <mxGeometry width="50" height="50" relative="1" as="geometry">
            <mxPoint x="-570" y="1750" as="sourcePoint" />
            <mxPoint x="-560" y="1750" as="targetPoint" />
          </mxGeometry>
        </mxCell>
        <mxCell id="-tWR_6xvnYIw_k4LsGsC-10" value="" style="endArrow=none;html=1;rounded=0;" edge="1" parent="1">
          <mxGeometry width="50" height="50" relative="1" as="geometry">
            <mxPoint x="-560" y="1750" as="sourcePoint" />
            <mxPoint x="-560" y="1800" as="targetPoint" />
          </mxGeometry>
        </mxCell>
        <mxCell id="-tWR_6xvnYIw_k4LsGsC-11" value="" style="rounded=0;whiteSpace=wrap;html=1;" vertex="1" parent="1">
          <mxGeometry x="-620" y="1800" width="120" height="40" as="geometry" />
        </mxCell>
        <mxCell id="-tWR_6xvnYIw_k4LsGsC-12" value="" style="endArrow=none;html=1;rounded=0;entryX=0.5;entryY=1;entryDx=0;entryDy=0;" edge="1" parent="1" target="-tWR_6xvnYIw_k4LsGsC-11">
          <mxGeometry width="50" height="50" relative="1" as="geometry">
            <mxPoint x="-560" y="1860" as="sourcePoint" />
            <mxPoint x="-580" y="1770" as="targetPoint" />
          </mxGeometry>
        </mxCell>
        <mxCell id="-tWR_6xvnYIw_k4LsGsC-14" value="" style="rounded=0;whiteSpace=wrap;html=1;" vertex="1" parent="1">
          <mxGeometry x="-620" y="1860" width="120" height="40" as="geometry" />
        </mxCell>
        <mxCell id="-tWR_6xvnYIw_k4LsGsC-15" value="" style="endArrow=none;html=1;rounded=0;entryX=0.5;entryY=1;entryDx=0;entryDy=0;" edge="1" parent="1" target="-tWR_6xvnYIw_k4LsGsC-14">
          <mxGeometry width="50" height="50" relative="1" as="geometry">
            <mxPoint x="-560" y="1940" as="sourcePoint" />
            <mxPoint x="-580" y="1830" as="targetPoint" />
          </mxGeometry>
        </mxCell>
        <mxCell id="-tWR_6xvnYIw_k4LsGsC-16" value="" style="rhombus;whiteSpace=wrap;html=1;" vertex="1" parent="1">
          <mxGeometry x="-620" y="1940" width="120" height="59.5" as="geometry" />
        </mxCell>
        <mxCell id="-tWR_6xvnYIw_k4LsGsC-17" value="" style="endArrow=none;html=1;rounded=0;exitX=1;exitY=0.5;exitDx=0;exitDy=0;" edge="1" parent="1" source="-tWR_6xvnYIw_k4LsGsC-16">
          <mxGeometry width="50" height="50" relative="1" as="geometry">
            <mxPoint x="-510" y="1970" as="sourcePoint" />
            <mxPoint x="-440" y="1970" as="targetPoint" />
          </mxGeometry>
        </mxCell>
        <mxCell id="-tWR_6xvnYIw_k4LsGsC-18" value="" style="endArrow=none;html=1;rounded=0;" edge="1" parent="1">
          <mxGeometry width="50" height="50" relative="1" as="geometry">
            <mxPoint x="-440" y="1970" as="sourcePoint" />
            <mxPoint x="-440" y="2020" as="targetPoint" />
          </mxGeometry>
        </mxCell>
        <mxCell id="-tWR_6xvnYIw_k4LsGsC-19" value="" style="rounded=0;whiteSpace=wrap;html=1;" vertex="1" parent="1">
          <mxGeometry x="-500" y="2020" width="120" height="40" as="geometry" />
        </mxCell>
        <mxCell id="-tWR_6xvnYIw_k4LsGsC-20" value="" style="endArrow=none;html=1;rounded=0;exitX=0.5;exitY=1;exitDx=0;exitDy=0;" edge="1" parent="1" source="-tWR_6xvnYIw_k4LsGsC-19">
          <mxGeometry width="50" height="50" relative="1" as="geometry">
            <mxPoint x="-510" y="2020" as="sourcePoint" />
            <mxPoint x="-440" y="2080" as="targetPoint" />
          </mxGeometry>
        </mxCell>
        <mxCell id="-tWR_6xvnYIw_k4LsGsC-21" value="" style="rounded=0;whiteSpace=wrap;html=1;" vertex="1" parent="1">
          <mxGeometry x="-500" y="2080" width="120" height="40" as="geometry" />
        </mxCell>
        <mxCell id="-tWR_6xvnYIw_k4LsGsC-22" value="" style="endArrow=classic;html=1;rounded=0;exitX=0.5;exitY=1;exitDx=0;exitDy=0;" edge="1" parent="1" source="-tWR_6xvnYIw_k4LsGsC-21">
          <mxGeometry width="50" height="50" relative="1" as="geometry">
            <mxPoint x="-510" y="2070" as="sourcePoint" />
            <mxPoint x="-560" y="1930" as="targetPoint" />
            <Array as="points">
              <mxPoint x="-440" y="2160" />
              <mxPoint x="-340" y="2160" />
              <mxPoint x="-340" y="1930" />
            </Array>
          </mxGeometry>
        </mxCell>
        <mxCell id="-tWR_6xvnYIw_k4LsGsC-23" value="" style="endArrow=none;html=1;rounded=0;exitX=1;exitY=0.5;exitDx=0;exitDy=0;" edge="1" parent="1">
          <mxGeometry width="50" height="50" relative="1" as="geometry">
            <mxPoint x="-680" y="1969.38" as="sourcePoint" />
            <mxPoint x="-620" y="1969.38" as="targetPoint" />
          </mxGeometry>
        </mxCell>
        <mxCell id="-tWR_6xvnYIw_k4LsGsC-24" value="" style="endArrow=none;html=1;rounded=0;" edge="1" parent="1">
          <mxGeometry width="50" height="50" relative="1" as="geometry">
            <mxPoint x="-680.37" y="1970" as="sourcePoint" />
            <mxPoint x="-680.37" y="2020" as="targetPoint" />
          </mxGeometry>
        </mxCell>
        <mxCell id="-tWR_6xvnYIw_k4LsGsC-25" value="" style="rounded=0;whiteSpace=wrap;html=1;" vertex="1" parent="1">
          <mxGeometry x="-740" y="2020" width="120" height="40" as="geometry" />
        </mxCell>
        <mxCell id="-tWR_6xvnYIw_k4LsGsC-26" value="" style="endArrow=none;html=1;rounded=0;exitX=0.5;exitY=1;exitDx=0;exitDy=0;" edge="1" parent="1" source="-tWR_6xvnYIw_k4LsGsC-25">
          <mxGeometry width="50" height="50" relative="1" as="geometry">
            <mxPoint x="-610" y="2070" as="sourcePoint" />
            <mxPoint x="-680" y="2080" as="targetPoint" />
          </mxGeometry>
        </mxCell>
        <mxCell id="-tWR_6xvnYIw_k4LsGsC-27" value="" style="rounded=0;whiteSpace=wrap;html=1;" vertex="1" parent="1">
          <mxGeometry x="-740" y="2080" width="120" height="40" as="geometry" />
        </mxCell>
        <mxCell id="-tWR_6xvnYIw_k4LsGsC-28" value="" style="endArrow=classic;html=1;rounded=0;exitX=0.5;exitY=1;exitDx=0;exitDy=0;" edge="1" parent="1" source="-tWR_6xvnYIw_k4LsGsC-27">
          <mxGeometry width="50" height="50" relative="1" as="geometry">
            <mxPoint x="-610" y="2070" as="sourcePoint" />
            <mxPoint x="-680" y="1710" as="targetPoint" />
            <Array as="points">
              <mxPoint x="-680" y="2200" />
              <mxPoint x="-280" y="2200" />
              <mxPoint x="-280" y="1710" />
            </Array>
          </mxGeometry>
        </mxCell>
        <mxCell id="-tWR_6xvnYIw_k4LsGsC-29" value="" style="endArrow=none;html=1;rounded=0;entryX=0;entryY=0.5;entryDx=0;entryDy=0;" edge="1" parent="1" target="-tWR_6xvnYIw_k4LsGsC-8">
          <mxGeometry width="50" height="50" relative="1" as="geometry">
            <mxPoint x="-840" y="1750" as="sourcePoint" />
            <mxPoint x="-780" y="1860" as="targetPoint" />
          </mxGeometry>
        </mxCell>
        <mxCell id="-tWR_6xvnYIw_k4LsGsC-30" value="" style="endArrow=none;html=1;rounded=0;" edge="1" parent="1">
          <mxGeometry width="50" height="50" relative="1" as="geometry">
            <mxPoint x="-840" y="1840" as="sourcePoint" />
            <mxPoint x="-840" y="1750" as="targetPoint" />
          </mxGeometry>
        </mxCell>
        <mxCell id="-tWR_6xvnYIw_k4LsGsC-31" value="" style="shape=document;whiteSpace=wrap;html=1;boundedLbl=1;size=0.3333333333333333;" vertex="1" parent="1">
          <mxGeometry x="-880" y="1840" width="80" height="40" as="geometry" />
        </mxCell>
        <mxCell id="-tWR_6xvnYIw_k4LsGsC-32" value="" style="endArrow=none;html=1;rounded=0;" edge="1" parent="1">
          <mxGeometry width="50" height="50" relative="1" as="geometry">
            <mxPoint x="-840" y="1920" as="sourcePoint" />
            <mxPoint x="-840" y="1874" as="targetPoint" />
          </mxGeometry>
        </mxCell>
        <mxCell id="-tWR_6xvnYIw_k4LsGsC-33" value="кінець" style="ellipse;whiteSpace=wrap;html=1;" vertex="1" parent="1">
          <mxGeometry x="-880" y="1919.5" width="80" height="40.5" as="geometry" />
        </mxCell>
      </root>
    </mxGraphModel>
  </diagram>
</mxfile>
